<svg width="70" height="70" viewBox="0 0 70 70" fill="none" xmlns="http://www.w3.org/2000/svg">
<g clip-path="url(#clip0_1041_586)">
<path d="M59.7488 10.2513C53.1381 3.64055 44.3488 0 35 0C25.6512 0 16.8619 3.64055 10.2512 10.2513C3.64068 16.8619 0 25.6512 0 35C0 44.3488 3.64068 53.1381 10.2512 59.7487C16.8619 66.3595 25.6512 70 35 70C44.3488 70 53.1381 66.3595 59.7488 59.7487C66.3593 53.1381 70 44.3488 70 35C70 25.6512 66.3593 16.8619 59.7488 10.2513ZM35 67.2656C17.2087 67.2656 2.73438 52.7913 2.73438 35C2.73438 17.2087 17.2087 2.73438 35 2.73438C52.7913 2.73438 67.2656 17.2087 67.2656 35C67.2656 52.7913 52.7913 67.2656 35 67.2656Z" fill="#A9AFC3"/>
<path d="M29.2681 61.1825L29.1836 61.164C28.4471 61.0003 27.7162 61.4649 27.5524 62.2019C27.3886 62.939 27.8533 63.6693 28.5905 63.8331L28.6862 63.8542C28.7842 63.8755 28.8821 63.8857 28.9785 63.8857C29.6075 63.8857 30.1737 63.4489 30.313 62.8094C30.4736 62.0715 30.0058 61.3432 29.2681 61.1825Z" fill="#A9AFC3"/>
<path d="M34.9805 57.7587C34.2255 57.7587 33.6133 58.3708 33.6133 59.1259V63.1641C33.6133 63.9192 34.2255 64.5312 34.9805 64.5312C35.7354 64.5312 36.3476 63.9192 36.3476 63.1641V59.1259C36.3476 58.3708 35.7354 57.7587 34.9805 57.7587Z" fill="#A9AFC3"/>
<path d="M62.8076 39.6885C62.0707 39.5276 61.3417 39.9956 61.1808 40.7333C58.898 51.2094 50.6208 59.2877 40.0936 61.3135C39.352 61.4561 38.8666 62.1729 39.0092 62.9143C39.1352 63.5685 39.708 64.0234 40.3504 64.0234C40.436 64.0234 40.5231 64.0153 40.6102 63.9985C46.2843 62.9066 51.4796 60.1839 55.6344 56.1247C59.7827 52.0717 62.6245 46.9507 63.8524 41.3153C64.013 40.5776 63.5453 39.8493 62.8076 39.6885Z" fill="#A9AFC3"/>
<path d="M24.67 59.7338C16.3592 56.2586 10.3842 48.917 8.68658 40.0952C8.54398 39.3538 7.82812 38.8676 7.08574 39.0111C6.34418 39.1537 5.85882 39.8705 6.00142 40.6119C6.92168 45.3932 9.04588 49.92 12.1449 53.7026C15.2081 57.4416 19.1744 60.3994 23.615 62.2564C23.7873 62.3285 23.9661 62.3626 24.1419 62.3626C24.6767 62.3626 25.1846 62.0468 25.4037 61.5225C25.6951 60.8259 25.3665 60.025 24.67 59.7338Z" fill="#A9AFC3"/>
<path d="M63.1641 33.6536H59.4727C58.7177 33.6536 58.1055 34.2657 58.1055 35.0208C58.1055 35.7759 58.7177 36.388 59.4727 36.388H63.1641C63.919 36.388 64.5312 35.7759 64.5312 35.0208C64.5312 34.2657 63.919 33.6536 63.1641 33.6536Z" fill="#A9AFC3"/>
<path d="M10.8008 33.612H6.83594C6.08098 33.612 5.46875 34.2241 5.46875 34.9792C5.46875 35.7343 6.08098 36.3464 6.83594 36.3464H10.8008C11.5557 36.3464 12.168 35.7343 12.168 34.9792C12.168 34.2241 11.5557 33.612 10.8008 33.612Z" fill="#A9AFC3"/>
<path d="M35 30.3516C32.4368 30.3516 30.3516 32.4368 30.3516 35C30.3516 37.5632 32.4368 39.6484 35 39.6484C37.5632 39.6484 39.6484 37.5632 39.6484 35C39.6484 32.4368 37.5632 30.3516 35 30.3516ZM35 36.9141C33.9445 36.9141 33.0859 36.0555 33.0859 35C33.0859 33.9445 33.9445 33.0859 35 33.0859C36.0555 33.0859 36.9141 33.9445 36.9141 35C36.9141 36.0555 36.0555 36.9141 35 36.9141Z" fill="#A9AFC3"/>
<path d="M31.7201 33.6328H25.4766C24.7216 33.6328 24.1094 34.2449 24.1094 35C24.1094 35.7551 24.7216 36.3672 25.4766 36.3672H31.7201C32.4751 36.3672 33.0873 35.7551 33.0873 35C33.0873 34.2449 32.4751 33.6328 31.7201 33.6328Z" fill="#A9AFC3"/>
<path d="M35 17.5455C34.245 17.5455 33.6328 18.1576 33.6328 18.9127V31.7187C33.6328 32.4738 34.245 33.0859 35 33.0859C35.755 33.0859 36.3672 32.4738 36.3672 31.7187V18.9127C36.3672 18.1576 35.755 17.5455 35 17.5455Z" fill="#A9AFC3"/>
<path d="M64 29.3882C62.1571 19.8118 55.7001 11.7746 46.7271 7.88882C46.0344 7.58872 45.2294 7.90727 44.9293 8.60003C44.6293 9.29292 44.9477 10.0979 45.6406 10.3979C53.7835 13.9243 59.643 21.2166 61.3149 29.9049C61.4408 30.5591 62.0137 31.014 62.6561 31.014C62.7417 31.014 62.8286 31.0059 62.9157 30.9891C63.6571 30.8465 64.1426 30.1297 64 29.3882Z" fill="#A9AFC3"/>
<path d="M41.3474 6.15305L41.3116 6.14526C40.5738 5.98612 39.8461 6.45561 39.6872 7.19389C39.5282 7.93204 39.9977 8.65924 40.7358 8.81825L40.7518 8.8218C40.8522 8.84422 40.9523 8.85489 41.051 8.85489C41.6771 8.85489 42.2421 8.42176 42.384 7.7852C42.5485 7.04815 42.0843 6.31753 41.3474 6.15305Z" fill="#A9AFC3"/>
<path d="M30.988 7.08589C30.8453 6.34446 30.1286 5.85829 29.3871 6.00171C23.713 7.09355 18.5176 9.8163 14.3629 13.8755C10.2146 17.9285 7.37275 23.0494 6.14488 28.6849C5.98423 29.4226 6.45195 30.1509 7.18968 30.3117C7.28771 30.333 7.38574 30.3433 7.48212 30.3433C8.11117 30.3433 8.67732 29.9066 8.81663 29.2669C11.0994 18.7907 19.3767 10.7125 29.9037 8.68673C30.6453 8.54413 31.1306 7.82731 30.988 7.08589Z" fill="#A9AFC3"/>
<path d="M35.0195 5.46875C34.2646 5.46875 33.6523 6.08084 33.6523 6.83594V9.89953C33.6523 10.6546 34.2646 11.2667 35.0195 11.2667C35.7746 11.2667 36.3867 10.6546 36.3867 9.89953V6.83594C36.3867 6.08084 35.7745 5.46875 35.0195 5.46875Z" fill="#A9AFC3"/>
</g>
<defs>
<clipPath id="clip0_1041_586">
<rect width="70" height="70" fill="white"/>
</clipPath>
</defs>
</svg>
