<svg width="66" height="66" viewBox="0 0 66 66" fill="none" xmlns="http://www.w3.org/2000/svg">
<path d="M23.1562 54.875H7.84375C7.55367 54.875 7.27547 54.9902 7.07035 55.1954C6.86523 55.4005 6.75 55.6787 6.75 55.9688V60.3438C6.75 60.6338 6.86523 60.912 7.07035 61.1171C7.27547 61.3223 7.55367 61.4375 7.84375 61.4375H23.1562C23.4463 61.4375 23.7245 61.3223 23.9296 61.1171C24.1348 60.912 24.25 60.6338 24.25 60.3438V55.9688C24.25 55.6787 24.1348 55.4005 23.9296 55.1954C23.7245 54.9902 23.4463 54.875 23.1562 54.875ZM22.0625 59.25H8.9375V57.0625H22.0625V59.25Z" fill="#A9AFC3"/>
<path d="M39.5624 52.6875C38.5622 52.6889 37.5929 53.0341 36.8171 53.6653C36.1751 53.1444 35.3988 52.816 34.5779 52.7182C33.757 52.6204 32.9252 52.7572 32.1788 53.1127C31.4325 53.4683 30.8022 54.028 30.3608 54.727C29.9195 55.426 29.6853 56.2358 29.6853 57.0625C29.6853 57.8892 29.9195 58.699 30.3608 59.398C30.8022 60.0971 31.4325 60.6568 32.1788 61.0123C32.9252 61.3678 33.757 61.5046 34.5779 61.4068C35.3988 61.309 36.1751 60.9806 36.8171 60.4597C37.3612 60.9013 38.0035 61.2057 38.6898 61.3473C39.3761 61.4889 40.0864 61.4635 40.7609 61.2734C41.4354 61.0832 42.0543 60.7339 42.5656 60.2546C43.0769 59.7754 43.4656 59.1804 43.699 58.5196C43.9324 57.8589 44.0037 57.1517 43.9068 56.4577C43.8099 55.7636 43.5477 55.103 43.1423 54.5314C42.7369 53.9598 42.2001 53.494 41.5771 53.1731C40.9541 52.8522 40.2631 52.6857 39.5624 52.6875V52.6875ZM34.0936 59.25C33.661 59.25 33.2381 59.1217 32.8783 58.8814C32.5186 58.641 32.2382 58.2994 32.0726 57.8996C31.9071 57.4999 31.8638 57.0601 31.9482 56.6358C32.0326 56.2114 32.2409 55.8216 32.5468 55.5157C32.8528 55.2098 33.2425 55.0015 33.6669 54.917C34.0912 54.8326 34.531 54.876 34.9307 55.0415C35.3305 55.2071 35.6721 55.4875 35.9125 55.8472C36.1528 56.2069 36.2811 56.6299 36.2811 57.0625C36.2811 57.6427 36.0507 58.1991 35.6404 58.6093C35.2302 59.0196 34.6738 59.25 34.0936 59.25ZM39.5624 59.25C39.0396 59.2514 38.5342 59.0624 38.1405 58.7185C38.3586 58.1936 38.4708 57.6309 38.4708 57.0625C38.4708 56.4942 38.3586 55.9314 38.1405 55.4066C38.5342 55.0626 39.0396 54.8737 39.5624 54.875C40.1425 54.875 40.6989 55.1055 41.1092 55.5157C41.5194 55.926 41.7499 56.4824 41.7499 57.0625C41.7499 57.6427 41.5194 58.1991 41.1092 58.6093C40.6989 59.0196 40.1425 59.25 39.5624 59.25Z" fill="#A9AFC3"/>
<path d="M43.9375 5.65625H46.125C46.4151 5.65625 46.6933 5.54102 46.8984 5.3359C47.1035 5.13078 47.2188 4.85258 47.2188 4.5625C47.2188 4.27242 47.1035 3.99422 46.8984 3.7891C46.6933 3.58398 46.4151 3.46875 46.125 3.46875H43.9375C43.6474 3.46875 43.3692 3.58398 43.1641 3.7891C42.959 3.99422 42.8438 4.27242 42.8438 4.5625C42.8438 4.85258 42.959 5.13078 43.1641 5.3359C43.3692 5.54102 43.6474 5.65625 43.9375 5.65625Z" fill="#A9AFC3"/>
<path d="M60.3438 0.1875H29.7188C28.2689 0.189237 26.8789 0.765965 25.8537 1.79118C24.8285 2.81639 24.2517 4.20638 24.25 5.65625V35.1875H5.65625C4.20638 35.1892 2.81639 35.766 1.79118 36.7912C0.765965 37.8164 0.189237 39.2064 0.1875 40.6562V60.3438C0.189237 61.7936 0.765965 63.1836 1.79118 64.2088C2.81639 65.234 4.20638 65.8108 5.65625 65.8125H60.3438C61.7936 65.8108 63.1836 65.234 64.2088 64.2088C65.234 63.1836 65.8108 61.7936 65.8125 60.3438V5.65625C65.8108 4.20638 65.234 2.81639 64.2088 1.79118C63.1836 0.765965 61.7936 0.189237 60.3438 0.1875V0.1875ZM29.7188 2.375H60.3438C61.214 2.375 62.0486 2.7207 62.6639 3.33606C63.2793 3.95141 63.625 4.78601 63.625 5.65625V6.75H26.4375V5.65625C26.4375 4.78601 26.7832 3.95141 27.3986 3.33606C28.0139 2.7207 28.8485 2.375 29.7188 2.375V2.375ZM26.4375 8.9375H63.625V54.875H48.3125V40.6562C48.3108 39.2064 47.734 37.8164 46.7088 36.7912C45.6836 35.766 44.2936 35.1892 42.8438 35.1875H26.4375V8.9375ZM2.375 43.9375H46.125V46.125H2.375V43.9375ZM5.65625 37.375H42.8438C43.714 37.375 44.5486 37.7207 45.1639 38.3361C45.7793 38.9514 46.125 39.786 46.125 40.6562V41.75H2.375V40.6562C2.375 39.786 2.7207 38.9514 3.33606 38.3361C3.95141 37.7207 4.78601 37.375 5.65625 37.375V37.375ZM2.375 60.3438V48.3125H46.125V60.3438C46.125 61.214 45.7793 62.0486 45.1639 62.6639C44.5486 63.2793 43.714 63.625 42.8438 63.625H5.65625C4.78601 63.625 3.95141 63.2793 3.33606 62.6639C2.7207 62.0486 2.375 61.214 2.375 60.3438V60.3438ZM60.3438 63.625H47.1903C47.9142 62.6839 48.3085 61.531 48.3125 60.3438V57.0625H63.625V60.3438C63.625 61.214 63.2793 62.0486 62.6639 62.6639C62.0486 63.2793 61.214 63.625 60.3438 63.625Z" fill="#A9AFC3"/>
<path d="M54.875 28.625V17.6875C54.875 17.3974 54.7598 17.1192 54.5546 16.9141C54.3495 16.709 54.0713 16.5938 53.7812 16.5938H50.5C50.5 15.1433 49.9238 13.7523 48.8982 12.7268C47.8727 11.7012 46.4817 11.125 45.0312 11.125C43.5808 11.125 42.1898 11.7012 41.1643 12.7268C40.1387 13.7523 39.5625 15.1433 39.5625 16.5938H36.2812C35.9912 16.5938 35.713 16.709 35.5079 16.9141C35.3027 17.1192 35.1875 17.3974 35.1875 17.6875V28.625C35.1892 30.0749 35.766 31.4649 36.7912 32.4901C37.8164 33.5153 39.2064 34.092 40.6562 34.0938H49.4062C50.8561 34.092 52.2461 33.5153 53.2713 32.4901C54.2965 31.4649 54.8733 30.0749 54.875 28.625V28.625ZM45.0312 13.3125C45.9015 13.3125 46.7361 13.6582 47.3514 14.2736C47.9668 14.8889 48.3125 15.7235 48.3125 16.5938H41.75C41.75 15.7235 42.0957 14.8889 42.7111 14.2736C43.3264 13.6582 44.161 13.3125 45.0312 13.3125ZM37.375 28.625V18.7812H39.5625V20.9688C39.5625 21.2588 39.6777 21.537 39.8829 21.7421C40.088 21.9473 40.3662 22.0625 40.6562 22.0625C40.9463 22.0625 41.2245 21.9473 41.4296 21.7421C41.6348 21.537 41.75 21.2588 41.75 20.9688V18.7812H48.3125V20.9688C48.3125 21.2588 48.4277 21.537 48.6329 21.7421C48.838 21.9473 49.1162 22.0625 49.4062 22.0625C49.6963 22.0625 49.9745 21.9473 50.1796 21.7421C50.3848 21.537 50.5 21.2588 50.5 20.9688V18.7812H52.6875V28.625C52.6875 29.4952 52.3418 30.3298 51.7264 30.9452C51.1111 31.5605 50.2765 31.9062 49.4062 31.9062H40.6562C39.786 31.9062 38.9514 31.5605 38.3361 30.9452C37.7207 30.3298 37.375 29.4952 37.375 28.625V28.625Z" fill="#A9AFC3"/>
</svg>
