<svg width="70" height="70" viewBox="0 0 70 70" fill="none" xmlns="http://www.w3.org/2000/svg">
<g clip-path="url(#clip0_688_833)">
<path d="M54.7638 64.2371V53.667H52.4304V58.3337H17.5193L17.4993 55.9901L15.166 56.0106L15.2349 64.2371C15.2389 67.4186 17.8178 69.9969 20.9993 70.0003H48.9993C52.1815 69.9969 54.7603 67.4186 54.7638 64.2371ZM48.9993 67.667H20.9993C19.1024 67.6636 17.5666 66.1238 17.5683 64.2262L17.5392 60.667H52.4304V64.2371C52.4281 66.1306 50.8935 67.6653 48.9993 67.667Z" fill="#A9AFC3"/>
<path d="M33.832 63H36.1654V65.3333H33.832V63Z" fill="#A9AFC3"/>
<path d="M41.999 11.667V14.0003H52.4301V16.3337H54.7634V10.4303C54.76 7.2487 52.1811 4.67041 48.999 4.66699H41.999V7.00033H48.999C50.8931 7.00203 52.4278 8.5367 52.4301 10.4303V11.667H41.999Z" fill="#A9AFC3"/>
<path d="M6.99902 4.66667V18.6667C6.99902 21.2438 9.08854 23.3333 11.6657 23.3333H19.4826L26.1886 27.804C26.5464 28.041 27.0055 28.0621 27.3838 27.8593C27.762 27.6565 27.9985 27.2623 27.999 26.8333V23.3333H34.999C37.5767 23.3333 39.6657 21.2438 39.6657 18.6667V4.66667C39.6657 2.08952 37.5767 0 34.999 0H11.6657C9.08854 0 6.99902 2.08952 6.99902 4.66667ZM37.3324 4.66667V18.6667C37.3324 19.9552 36.2876 21 34.999 21H26.8324C26.1881 21 25.6657 21.5224 25.6657 22.1667V24.6538L20.4801 21.196C20.2881 21.0684 20.0631 21.0006 19.8324 21H11.6657C10.3771 21 9.33236 19.9552 9.33236 18.6667V4.66667C9.33236 3.37809 10.3771 2.33333 11.6657 2.33333H34.999C36.2876 2.33333 37.3324 3.37809 37.3324 4.66667Z" fill="#A9AFC3"/>
<path d="M13.9993 53.6671C16.9934 53.6631 19.9078 52.7015 22.3163 50.9231L27.6831 52.456C28.1286 52.5836 28.6071 52.4361 28.9028 52.08C29.1984 51.724 29.2554 51.2261 29.048 50.8125L26.5609 45.8502C29.3215 40.2425 28.0306 33.4846 23.397 29.289C18.7639 25.094 11.9109 24.4782 6.60392 27.7806C1.29696 31.0829 -1.17822 37.503 0.538737 43.5129C2.25627 49.5228 7.74894 53.6665 13.9993 53.6671ZM13.9993 28.0004C18.1213 28.0004 21.9375 30.176 24.0378 33.7233C26.1382 37.27 26.2105 41.6621 24.2287 45.2766C24.0447 45.6121 24.0367 46.0166 24.2076 46.3589L25.7702 49.4835L22.3864 48.5174C22.0224 48.4148 21.631 48.4952 21.3365 48.7333C19.2658 50.424 16.6727 51.3435 13.9993 51.3338C7.55583 51.3338 2.3326 46.1106 2.3326 39.6671C2.3326 33.2237 7.55583 28.0004 13.9993 28.0004Z" fill="#A9AFC3"/>
<path d="M6.59898 42.117L13.2595 47.5721C13.6896 47.9247 14.3088 47.9247 14.7389 47.5721L21.3994 42.117C22.488 41.2363 23.1767 39.9546 23.31 38.5606C23.4399 37.1849 23.0092 35.8143 22.1154 34.7599C21.1179 33.5915 19.6852 32.8834 18.1517 32.8002C16.6176 32.7171 15.1171 33.2668 13.9989 34.3201C12.8744 33.2668 11.3682 32.7188 9.82953 32.8036C8.30056 32.8845 6.87299 33.5926 5.88234 34.7599C4.98855 35.8143 4.55788 37.1849 4.68776 38.5606C4.82106 39.9546 5.50979 41.2363 6.59898 42.117ZM7.67222 36.2569C8.24758 35.583 9.0753 35.1763 9.95998 35.133H10.1457C10.9791 35.1296 11.7823 35.4463 12.389 36.0177L13.1928 36.785C13.644 37.2162 14.3544 37.2162 14.805 36.785L15.6093 36.0177C16.2599 35.4093 17.1297 35.092 18.0196 35.1381C18.9094 35.1843 19.7416 35.5904 20.3261 36.2626C20.8177 36.8408 21.0558 37.5928 20.9875 38.3487C20.9112 39.1218 20.5261 39.8321 19.9199 40.3181L13.9989 45.1585L8.07839 40.3084C7.4717 39.8224 7.08718 39.1126 7.01084 38.339C6.94191 37.5831 7.1806 36.8317 7.67222 36.2535V36.2569Z" fill="#A9AFC3"/>
<path d="M53.6654 18.667C47.8662 18.6596 42.4995 21.7318 39.5697 26.7363C36.6399 31.7407 36.5875 37.9244 39.4324 42.9779L36.3198 48.417C36.0879 48.8226 36.1204 49.3279 36.4029 49.7005C36.6849 50.0724 37.1623 50.2405 37.6157 50.1271L44.4033 48.4301C47.1206 50.3237 50.3534 51.3371 53.6654 51.3337C62.686 51.3337 69.9987 44.0209 69.9987 35.0003C69.9987 25.9798 62.686 18.667 53.6654 18.667ZM53.6654 49.0003C50.6644 49.0038 47.7432 48.0336 45.3404 46.2352C45.1381 46.0837 44.8926 46.0022 44.6402 46.0022C44.5445 46.0016 44.4494 46.013 44.3566 46.037L39.6973 47.2036L41.7868 43.5464C41.9999 43.1738 41.9919 42.7147 41.7657 42.3501C38.4241 36.9281 39.1681 29.9326 43.5744 25.3338C47.9813 20.7354 54.938 19.6941 60.4985 22.801C66.0584 25.908 68.8173 32.3788 67.2102 38.5419C65.6027 44.7051 60.0348 49.0043 53.6654 49.0003Z" fill="#A9AFC3"/>
<path d="M60.1988 31.5H58.332V29.1667C58.332 26.5895 56.2431 24.5 53.6654 24.5C52.3768 24.5 51.332 25.5448 51.332 26.8333V29.8503L49.6823 31.5H45.4987C44.8544 31.5 44.332 32.0224 44.332 32.6667V42C44.332 42.6443 44.8544 43.1667 45.4987 43.1667H60.1988C61.7454 43.1667 62.9987 41.9128 62.9987 40.3668V34.2999C62.9987 32.7538 61.7454 31.5 60.1988 31.5ZM46.6654 33.8333H48.9987V40.8333H46.6654V33.8333ZM60.6654 40.3668C60.6654 40.6243 60.4563 40.8333 60.1988 40.8333H51.332V33.1497L53.3236 31.1582C53.5423 30.9395 53.6654 30.6427 53.6654 30.3333V26.8333C54.9539 26.8333 55.9987 27.8781 55.9987 29.1667V31.5C55.3544 31.5 54.832 32.0224 54.832 32.6667C54.832 33.311 55.3544 33.8333 55.9987 33.8333H60.1988C60.4563 33.8333 60.6654 34.0424 60.6654 34.2999V40.3668Z" fill="#A9AFC3"/>
<path d="M13.9987 18.6665H25.6654C26.3097 18.6665 26.832 18.1441 26.832 17.4998V15.8877L32.1441 18.5497C32.5064 18.7309 32.9377 18.7109 33.2817 18.4967C33.6258 18.2825 33.8343 17.9054 33.832 17.4998V5.83316C33.8326 5.4287 33.623 5.05329 33.2795 4.84024C32.9354 4.62776 32.5059 4.60839 32.1441 4.78897L26.832 7.4453V5.83316C26.832 5.18887 26.3097 4.66649 25.6654 4.66649H13.9987C13.3544 4.66649 12.832 5.18887 12.832 5.83316V17.4998C12.832 18.1441 13.3544 18.6665 13.9987 18.6665ZM15.1654 6.99983H24.4987V9.33316C24.4987 9.73762 24.7078 10.113 25.0518 10.3261C25.3959 10.5386 25.8254 10.5579 26.1872 10.3773L31.4987 7.72102V15.612L26.1872 12.9556C25.8254 12.7751 25.3959 12.7944 25.0518 13.0069C24.7078 13.22 24.4987 13.5954 24.4987 13.9998V16.3332H15.1654V6.99983Z" fill="#A9AFC3"/>
</g>
<defs>
<clipPath id="clip0_688_833">
<rect width="70" height="70" fill="white"/>
</clipPath>
</defs>
</svg>
