<svg width="70" height="64" viewBox="0 0 70 64" fill="none" xmlns="http://www.w3.org/2000/svg">
<path d="M67.3213 26.4539H66.0716C64.9373 20.1445 61.9188 14.3361 57.2895 9.70739C51.2995 3.71685 43.3346 0.417969 34.8633 0.417969C26.3921 0.417969 18.4272 3.71685 12.4372 9.70739C7.77483 14.3697 4.74511 20.2283 3.63 26.5911H2.4054C1.0035 26.5911 -0.136719 27.7313 -0.136719 29.1332V38.3714C-0.136719 39.7728 1.0035 40.9135 2.4054 40.9135H4.38836C6.08186 46.7946 9.45871 52.1218 14.2065 56.2004C14.6364 56.5694 15.2842 56.5208 15.6538 56.0909C16.0234 55.6605 15.9742 55.0126 15.5443 54.6431C14.316 53.5883 13.1864 52.4433 12.1605 51.2235C13.7296 50.5623 15.3328 50.0171 16.9478 49.5701C17.7147 50.9234 18.5751 52.2291 19.5295 53.4762C21.6203 56.2089 23.9814 58.6133 26.4979 60.5952C24.407 59.9826 22.3851 59.1409 20.4779 58.0808C19.9823 57.8058 19.3575 57.9842 19.0825 58.4798C18.8069 58.9754 18.9853 59.6002 19.4809 59.8758C24.1597 62.4751 29.479 63.8492 34.8633 63.8492C43.3346 63.8492 51.299 60.5503 57.2895 54.5598C61.1374 50.7124 63.8713 46.0485 65.3367 40.9605H67.3213C68.7232 40.9605 69.8634 39.8203 69.8634 38.4184V28.996C69.8634 27.5946 68.7232 26.4539 67.3213 26.4539ZM63.9818 26.4539H56.8415C56.756 25.9219 56.6615 25.39 56.5515 24.8586C55.9416 21.9144 54.9883 19.1031 53.7071 16.4493C53.8961 16.3975 54.0863 16.3468 54.2742 16.2934C55.5811 15.9196 57.2447 15.4111 58.8789 14.712C61.4312 18.216 63.1631 22.2097 63.9818 26.4539ZM54.7837 26.5911H44.1773C44.1421 26.0763 44.1036 25.5615 44.0582 25.0477C43.8548 22.7512 43.5546 20.5279 43.168 18.4019C46.1101 18.0964 48.9518 17.6184 51.6782 16.97C52.9786 19.5811 53.9373 22.3592 54.5413 25.2752C54.6321 25.7131 54.7106 26.1521 54.7837 26.5911ZM55.838 11.1584C56.4425 11.763 57.0166 12.39 57.5619 13.0356C56.1947 13.5847 54.819 14.0023 53.7097 14.3195C53.3882 14.4114 53.0646 14.4995 52.7399 14.586C52.091 13.4228 51.378 12.2922 50.5973 11.1985C48.5513 8.33379 46.125 5.82585 43.3549 3.69869C48.022 5.08618 52.2988 7.61922 55.838 11.1584ZM38.0287 2.63858C42.3877 5.08885 46.0546 8.36903 48.9267 12.3916C49.5526 13.269 50.1321 14.1721 50.6683 15.0971C48.1331 15.6755 45.4954 16.1043 42.7669 16.3804C41.5786 10.8481 39.7788 6.08273 37.5246 2.58999C37.6928 2.6044 37.861 2.62043 38.0287 2.63858ZM34.8633 2.47089C34.8885 2.47089 34.913 2.47142 34.9381 2.47142C37.4322 5.76283 39.4263 10.6794 40.7108 16.5588C38.5179 16.7169 36.2717 16.7815 33.9757 16.7479C32.4174 16.7255 30.7495 16.6769 29.0133 16.5711C30.2977 10.6863 32.2929 5.76496 34.7886 2.47142C34.8137 2.47142 34.8382 2.47089 34.8633 2.47089ZM32.2021 2.58999C29.942 6.09074 28.1396 10.8706 26.9513 16.4189C24.3744 16.1946 21.6838 15.8234 18.9922 15.2103C19.5465 14.2453 20.1479 13.3043 20.8 12.391C23.6721 8.36903 27.339 5.08885 31.698 2.63805C31.8657 2.62043 32.0339 2.6044 32.2021 2.58999ZM26.5507 18.4451C26.1678 20.5579 25.8703 22.7667 25.6685 25.0477C25.6231 25.5615 25.5846 26.0763 25.5499 26.5911H14.9419C15.0145 26.1521 15.0946 25.7131 15.1854 25.2752C15.7804 22.402 16.7214 19.6633 17.9924 17.0854C20.8902 17.7808 23.7854 18.1957 26.5507 18.4451ZM13.8887 11.1584C17.4279 7.61922 21.7047 5.08618 26.3718 3.69869C23.6011 5.82585 21.1749 8.33379 19.1294 11.1985C18.3252 12.3248 17.593 13.4912 16.9291 14.6918C15.32 14.2458 13.7221 13.7016 12.1589 13.0426C12.7058 12.3948 13.282 11.7656 13.8887 11.1584ZM10.8467 14.7142C12.5269 15.4517 14.2433 16.0563 15.97 16.5524C14.7139 19.1762 13.7771 21.9523 13.1752 24.8586C13.0561 25.4354 12.9531 26.0133 12.8628 26.5911H5.71817C6.52566 22.2962 8.26776 18.255 10.8467 14.7142ZM2.4054 38.8606C2.1357 38.8606 1.9162 38.6411 1.9162 38.3708V29.1327C1.9162 28.863 2.1357 28.6435 2.4054 28.6435H32.035C32.6021 28.6435 33.0614 28.1842 33.0614 27.617C33.0614 27.0504 32.6021 26.5906 32.035 26.5906H27.6066C27.6386 26.1366 27.6733 25.6821 27.7134 25.2287C27.9168 22.9317 28.2181 20.7149 28.6069 18.6027C30.4793 18.7228 32.2737 18.7762 33.9464 18.8003C34.3512 18.8061 34.7549 18.8093 35.1576 18.8093C37.1828 18.8093 39.17 18.7335 41.1172 18.5861C41.507 20.7031 41.8093 22.9259 42.0133 25.2287C42.0534 25.6821 42.0886 26.1366 42.1207 26.5906H38.4437C37.877 26.5906 37.4172 27.0504 37.4172 27.617C37.4172 28.1842 37.877 28.6435 38.4437 28.6435H54.365V38.86H2.4054V38.8606ZM54.1188 40.913C53.5276 43.1197 52.7095 45.2591 51.6718 47.295C48.9502 46.6482 46.1149 46.1692 43.1781 45.8637C43.4729 44.2588 43.7148 42.6043 43.9018 40.9135H54.1188V40.913ZM41.8387 40.913C41.6534 42.5434 41.4152 44.1371 41.1263 45.6816C38.7892 45.5043 36.3945 45.4306 33.9464 45.4664C32.2705 45.4904 30.4729 45.5438 28.5972 45.6645C28.3099 44.1253 28.0728 42.5376 27.888 40.913H41.8387ZM10.8531 49.5503C8.94655 46.9227 7.4875 44.0046 6.52994 40.913H13.4898C14.0794 43.2607 14.9072 45.5406 15.9694 47.7147C14.2449 48.2103 12.5306 48.8138 10.8531 49.5503ZM15.61 40.913H25.8233C26.0087 42.5899 26.249 44.2311 26.5406 45.8231C23.7795 46.072 20.8892 46.4869 17.9967 47.1801C16.9868 45.179 16.19 43.078 15.61 40.913ZM31.6878 61.6222C27.8474 59.4587 24.2089 56.2137 21.1599 52.2286C20.3791 51.2091 19.6672 50.1463 19.02 49.0499C21.7004 48.4411 24.3792 48.072 26.9454 47.8483C27.3513 49.7127 27.8325 51.4975 28.3868 53.175C29.205 55.6471 30.4894 58.9449 32.2166 61.6756C32.0403 61.6601 31.8641 61.6414 31.6878 61.6222ZM34.8633 61.7963C34.8382 61.7963 34.8137 61.7952 34.7886 61.7952C33.1725 59.6542 31.6355 56.4583 30.3361 52.5303C29.8314 51.0045 29.3909 49.3853 29.0138 47.6955C30.75 47.5903 32.4174 47.5412 33.9757 47.5187C36.2717 47.4862 38.5174 47.5508 40.7102 47.7089C40.3337 49.3938 39.8937 51.0088 39.3906 52.5303C38.0917 56.4583 36.5542 59.6542 34.9381 61.7952C34.913 61.7957 34.8885 61.7963 34.8633 61.7963ZM37.508 61.6788C39.2362 58.9476 40.5217 55.6482 41.3393 53.175C41.8905 51.5092 42.3685 49.7383 42.7722 47.8878C45.489 48.1628 48.1149 48.5885 50.6394 49.1631C50.0103 50.2195 49.3203 51.2443 48.5668 52.2286C45.5146 56.2175 41.8723 59.4651 38.0282 61.6286C37.8551 61.6467 37.6816 61.6633 37.508 61.6788ZM55.838 53.1082C52.2619 56.6843 47.9328 59.2328 43.2096 60.6101C45.733 58.6256 48.1011 56.2159 50.1972 53.4762C51.127 52.2617 51.9666 50.9907 52.718 49.6747C53.0502 49.7634 53.3813 49.8536 53.7097 49.9471C54.8179 50.2643 56.1926 50.682 57.5592 51.2304C57.014 51.8761 56.4425 52.5042 55.838 53.1082ZM58.8757 49.5535C57.2425 48.8555 55.58 48.3471 54.2742 47.9738C54.0863 47.9198 53.8961 47.8696 53.7071 47.8178C54.7864 45.6276 55.6265 43.328 56.2246 40.9605H63.1909C62.2381 44.0329 60.7866 46.9302 58.8757 49.5535ZM67.8105 38.3714C67.8105 38.6411 67.591 38.8606 67.3213 38.8606H56.4174V28.6435H67.3213C67.591 28.6435 67.8105 28.8635 67.8105 29.1332V38.3714Z" fill="#A9AFC3"/>
</svg>
