<svg width="70" height="70" viewBox="0 0 70 70" fill="none" xmlns="http://www.w3.org/2000/svg">
<g clip-path="url(#clip0_688_2032)">
<path d="M60.1616 0H57.152C55.829 0 55.829 2.05108 57.152 2.05108H60.1616C63.2697 2.05108 65.7984 4.57062 65.7984 7.66748V31.4015C65.7984 34.4984 63.2698 37.018 60.1616 37.018H56.7482C56.523 37.018 56.3041 37.0921 56.1251 37.229L49.8616 42.02V38.0435C49.8616 37.4772 49.4026 37.018 48.8361 37.018H36.3546C35.3325 37.018 34.3501 36.7482 33.4838 36.2353V24.723C33.4838 22.5666 32.3855 20.6615 30.7177 19.5343V7.66748C30.7177 4.57062 33.2464 2.05108 36.3546 2.05108H50.7253C52.0481 2.05108 52.0481 0 50.7253 0H36.3546C32.1154 0 28.6666 3.43966 28.6666 7.66748V18.6329C28.197 18.5208 27.7078 18.4597 27.2043 18.4597H8.43067C4.96832 18.4597 2.15137 21.2694 2.15137 24.723V26.9375C2.15137 28.2603 4.20245 28.2603 4.20245 26.9375V24.723C4.20245 22.4004 6.09915 20.5108 8.43067 20.5108H27.2045C29.536 20.5108 31.4328 22.4004 31.4328 24.723V36.6436C31.4205 36.7341 31.4211 36.8253 31.4328 36.9152V43.4392C31.4328 43.5682 31.425 43.6966 31.4134 43.8243H29.2985C26.968 43.8243 25.0253 45.5063 24.6224 47.717C24.5292 47.7521 24.4396 47.8012 24.3566 47.8652L19.7697 51.4068V48.677C19.7697 48.1106 19.3107 47.6515 18.7442 47.6515H8.43067C6.09915 47.6515 4.20245 45.7619 4.20245 43.4392V33.0907C4.20245 31.7679 2.15137 31.7679 2.15137 33.0907V43.4394C2.15137 46.893 4.96832 49.7027 8.43067 49.7027H17.7188V53.4944C17.7188 54.3171 18.7176 54.8105 19.3711 54.3063L24.5446 50.3117V61.849C24.5446 64.4641 26.6773 66.5915 29.2986 66.5915H35.592V68.9846C35.592 69.8069 36.5909 70.301 37.2442 69.7964L41.3951 66.5915H42.6213C45.2426 66.5915 47.3753 64.464 47.3753 61.849V60.0282C47.3753 58.7054 45.3242 58.7054 45.3242 60.0282V61.849C45.3242 63.3332 44.1118 64.5404 42.6213 64.5404H41.0451C40.8183 64.5404 40.5979 64.6157 40.4185 64.7542L37.6429 66.897V65.5658C37.6429 64.9995 37.1839 64.5403 36.6174 64.5403H29.2985C27.8082 64.5403 26.5956 63.3329 26.5956 61.8489V48.5669C26.5956 47.0828 27.808 45.8755 29.2985 45.8755H42.6213C44.1116 45.8755 45.3242 47.0829 45.3242 48.5669V53.6015C45.3242 54.9243 47.3753 54.9243 47.3753 53.6015V48.5671C47.3753 45.9519 45.2426 43.8246 42.6213 43.8246H33.4721C33.4799 43.6964 33.4839 38.5166 33.4839 38.5166C34.3882 38.8802 35.3576 39.0692 36.3547 39.0692H47.8107V44.0957C47.8107 44.9163 48.8053 45.4103 49.4593 44.9103L57.0956 39.0692H60.1617C64.4008 39.0692 67.8496 35.6295 67.8496 31.4016V7.66748C67.8494 3.43966 64.4006 0 60.1616 0V0Z" fill="#A9AFC3"/>
<path d="M35.9476 51.1666C35.1195 50.4849 34.0178 50.2159 32.9126 50.4846C31.4964 50.8285 30.0674 52.1524 30.0674 54.3346C30.0674 55.6928 30.5631 56.8718 31.5827 57.9389C32.4156 58.8106 33.6175 59.6395 35.4796 60.6268C35.6299 60.7065 35.795 60.7463 35.96 60.7463C36.125 60.7463 36.2901 60.7065 36.4404 60.6268C39.689 58.9045 41.8525 57.1755 41.8525 54.3346C41.8525 52.1405 40.3727 50.8301 38.906 50.5048C37.8042 50.2603 36.736 50.5199 35.9476 51.1666ZM39.8013 54.3346C39.8013 55.8669 38.7849 57 35.9599 58.5552C33.1348 56.9999 32.1183 55.8668 32.1183 54.3346C32.1183 53.1945 32.7785 52.6278 33.3964 52.4777C33.5103 52.4501 33.6323 52.4345 33.7577 52.4345C34.2225 52.4345 34.7335 52.6492 35.0485 53.26C35.228 53.6076 35.5909 53.8231 35.9802 53.815C36.3712 53.8072 36.7238 53.5777 36.8891 53.2233C37.221 52.512 37.9189 52.3869 38.4615 52.5074C39.1094 52.6508 39.8013 53.2064 39.8013 54.3346Z" fill="#A9AFC3"/>
<path d="M10.9328 35.6203C10.3663 35.6203 9.90723 36.0795 9.90723 36.6459C9.90723 37.2123 10.3663 37.6714 10.9328 37.6714H13.9558L13.3911 41.087C13.2986 41.6457 13.6768 42.1737 14.2355 42.2661C14.2923 42.2755 14.3485 42.2801 14.404 42.2801C14.8968 42.2801 15.3315 41.9239 15.4146 41.4216L16.0346 37.6716H18.5086L17.9439 41.0872C17.8515 41.6459 18.2297 42.1738 18.7884 42.2662C18.8451 42.2757 18.9013 42.2802 18.9569 42.2802C19.4497 42.2802 19.8844 41.924 19.9675 41.4218L20.5875 37.6717H24.7023C25.2688 37.6717 25.7279 37.2125 25.7279 36.6462C25.7279 36.0798 25.2688 35.6206 24.7023 35.6206H20.9266L21.3402 33.1189H24.7023C25.2688 33.1189 25.7279 32.6597 25.7279 32.0933C25.7279 31.5269 25.2688 31.0678 24.7023 31.0678H21.6793L22.2441 27.6522C22.3365 27.0935 21.9583 26.5655 21.3996 26.4731C20.8402 26.3804 20.3129 26.7589 20.2205 27.3176L19.6005 31.0676H17.1265L17.6912 27.6521C17.7836 27.0933 17.4054 26.5654 16.8467 26.473C16.2866 26.3802 15.7602 26.7587 15.6676 27.3175L15.0476 31.0675H10.9328C10.3663 31.0675 9.90723 31.5267 9.90723 32.093C9.90723 32.6594 10.3663 33.1186 10.9328 33.1186H14.7085L14.2949 35.6203H10.9328ZM16.7875 33.1186H19.2615L18.8479 35.6203H16.3739L16.7875 33.1186Z" fill="#A9AFC3"/>
<path d="M50.8202 7.57677C49.518 7.24436 48.1911 8.27318 48.1911 9.61869C48.1911 11.0888 47.6554 12.5055 46.6833 13.6072L43.8577 16.8046C43.6748 16.5238 43.3586 16.338 42.9986 16.338H37.4826C36.9161 16.338 36.457 16.7972 36.457 17.3636V29.7746C36.457 30.341 36.9161 30.8002 37.4826 30.8002H42.9986C43.4131 30.8002 43.7691 30.5539 43.9309 30.2003C45.0476 30.8826 46.3417 31.2515 47.6584 31.2515H57.4067C58.8964 31.2515 60.1252 29.959 60.0554 28.4732C60.0243 27.8152 60.0582 18.9801 60.0582 18.7839C60.0582 17.3219 58.8688 16.1322 57.4098 16.1322L52.3404 16.117L52.5503 15.62C53.5096 13.3484 53.3516 10.7142 52.1284 8.57332C51.8428 8.07313 51.3781 7.71939 50.8202 7.57677C50.262 7.43429 51.3781 7.71939 50.8202 7.57677C49.5182 7.24436 51.3781 7.71939 50.8202 7.57677ZM41.9731 28.7491H38.5081V18.3891H41.9731V28.7491ZM57.4067 18.1832C57.7379 18.1832 58.0073 18.4525 58.0073 18.7837C58.0073 18.9788 58.0052 19.5084 58.0025 20.2265C57.9873 24.1908 57.9772 27.9453 58.0065 28.5694C58.0171 28.7946 57.9076 28.9448 57.8414 29.0142C57.7268 29.1343 57.5725 29.2003 57.4067 29.2003H47.6584C46.4964 29.2003 45.3591 28.7976 44.4558 28.0665L44.0241 27.717V19.7135L48.2208 14.9648C49.5243 13.4874 50.2422 11.5888 50.2422 9.61855C50.2422 9.56057 50.3214 9.54553 50.3476 9.59066C51.2558 11.18 51.3729 13.1355 50.6609 14.8219L49.8515 16.7388C49.7179 17.0551 49.7516 17.417 49.9407 17.7034C50.1301 17.9897 50.45 18.1622 50.7931 18.1633L57.4067 18.1832Z" fill="#A9AFC3"/>
</g>
<defs>
<clipPath id="clip0_688_2032">
<rect width="70" height="70" fill="white"/>
</clipPath>
</defs>
</svg>
